<?xml version="1.0" encoding="utf-8"?>
<!-- Generator: Adobe Illustrator 16.0.0, SVG Export Plug-In . SVG Version: 6.00 Build 0)  -->
<!DOCTYPE svg PUBLIC "-//W3C//DTD SVG 1.1//EN" "http://www.w3.org/Graphics/SVG/1.1/DTD/svg11.dtd">
<svg version="1.1" id="Layer_1" xmlns="http://www.w3.org/2000/svg" xmlns:xlink="http://www.w3.org/1999/xlink" x="0px" y="0px"
	 width="48px" height="48px" viewBox="0 0 48 48" enable-background="new 0 0 48 48" xml:space="preserve">
<g>
	<path fill="#E44D26" d="M-183.694,9.489l-3.062,34.306l-13.765,3.816l-13.728-3.811l-3.059-34.312H-183.694L-183.694,9.489z"/>
	<path fill="#F16529" d="M-200.5,44.693l11.123-3.084l2.616-29.315H-200.5V44.693z"/>
	<path fill="#EBEBEB" d="M-206.454,20.711h5.953v-4.208h-10.552l0.1,1.128l1.035,11.597h9.417V25.02h-5.568L-206.454,20.711z
		 M-205.505,31.334h-4.225l0.59,6.605l8.62,2.393l0.02-0.004v-4.379l-0.019,0.004l-4.687-1.266L-205.505,31.334L-205.505,31.334z"/>
	<path d="M-214.181,0.165h2.139v2.113h1.957V0.165h2.139v6.398h-2.139V4.42h-1.957v2.143h-2.139V0.165L-214.181,0.165z
		 M-205.135,2.287h-1.883V0.165h5.905v2.122h-1.883v4.276h-2.139L-205.135,2.287L-205.135,2.287L-205.135,2.287z M-200.175,0.165
		h2.229l1.372,2.248l1.37-2.248h2.231v6.398h-2.13V3.391l-1.472,2.275h-0.037l-1.472-2.275v3.172h-2.093V0.165z M-191.908,0.165
		h2.139v4.283h3.007v2.115h-5.146L-191.908,0.165L-191.908,0.165z"/>
	<path fill="#FFFFFF" d="M-200.516,29.229h5.184l-0.49,5.457l-4.693,1.266v4.379l8.628-2.391l0.062-0.711l0.989-11.078l0.103-1.131
		h-9.782V29.229L-200.516,29.229z M-200.516,20.701v0.011h10.165l0.085-0.946l0.191-2.134l0.102-1.128h-10.543V20.701
		L-200.516,20.701z"/>
</g>
<g>
	<path fill="#131313" d="M-121.302,1.856h-2.78l2.892,3.142v1.494h-5.963v-1.75h2.896l-2.896-3.143V0.105h5.854L-121.302,1.856z
		 M-128.335,1.856h-2.787l2.898,3.142v1.494h-5.963v-1.75h2.893l-2.893-3.143V0.105h5.852V1.856z M-135.302,1.928h-3.001v2.743
		h3.001v1.824h-5.139v-6.39h5.139V1.928z"/>
	<path fill="#1572B6" d="M-144.532,43.646l-3.053-34.236h33.539l-3.057,34.228l-13.734,3.81L-144.532,43.646z"/>
	<path fill="#33A9DC" d="M-130.815,44.539l11.099-3.076l2.608-29.253h-13.707V44.539z"/>
	<path fill="#FFFFFF" d="M-130.815,24.613h5.556l0.384-4.3h-5.939v-4.197h10.529l-0.1,1.127l-1.032,11.572h-9.397V24.613z"/>
	<path fill="#EBEBEB" d="M-130.792,35.519h-0.02l-4.677-1.263l-0.298-3.348h-4.211l0.587,6.59l8.603,2.396h0.025v-4.375H-130.792z"
		/>
	<path fill="#FFFFFF" d="M-125.614,28.631l-0.507,5.621l-4.683,1.263v4.375l8.607-2.388l0.062-0.71l0.731-8.161H-125.614
		L-125.614,28.631z"/>
	<path fill="#EBEBEB" d="M-130.799,16.117v4.199h-10.141l-0.085-0.943l-0.193-2.129l-0.1-1.127H-130.799z M-130.815,24.613v4.198
		h-4.623l-0.081-0.943l-0.193-2.129l-0.1-1.126h4.995H-130.815z"/>
</g>
<g>
	<path fill="#E6A329" d="M-44.117,9.573h-33.707l3.16,34.267l13.691,3.885l13.691-3.885L-44.117,9.573z"/>
	<path fill="#F1BF22" d="M-60.972,12.365V44.82l11.094-3.143l2.698-29.313H-60.972z"/>
	<path fill="#FFFFFF" d="M-52.147,16.569h-17.056l-1.188,12.83l0.024-0.078h14.491l-0.472,5.428l-4.624,1.33l-4.692-1.352
		l-0.28-3.285h-4.259l0.607,6.564l8.624,2.449l8.628-2.449l1.188-12.885h-15.379l0.198-4.293h10.669l0.16,2.459h4.297
		L-52.147,16.569z"/>
	<path fill="#EBEBEB" d="M-60.968,16.569h-8.235l-1.188,12.83l0.024-0.078h9.399v-4.186h-4.967l0.197-4.293h4.77V16.569z
		 M-65.935,31.441h-4.269l0.607,6.561l8.624,2.445v-4.365l-4.692-1.355L-65.935,31.441z"/>
	<path fill="#231F20" d="M-64.25,4.519h-3v2.154h5.146V0.275h-2.146V4.519z M-54.692,0.31h-5.231v2.239
		c0.698,0.699,1.064,1.034,2.094,2.046h-2.094v2.042h5.231V4.599l-2.092-2.046h2.092V0.31z"/>
</g>
<g>
	<path fill="#8CC84B" d="M87.307,0.81c1.176-0.673,2.706-0.676,3.88,0c5.907,3.338,11.815,6.67,17.723,10.01
		c1.11,0.625,1.853,1.862,1.842,3.142v20.082c0.009,1.332-0.81,2.599-1.981,3.209c-5.887,3.319-11.77,6.643-17.657,9.962
		c-1.199,0.686-2.761,0.634-3.923-0.108c-1.765-1.023-3.533-2.042-5.299-3.063c-0.359-0.214-0.767-0.388-1.021-0.736
		c0.226-0.303,0.628-0.341,0.955-0.475c0.736-0.233,1.414-0.61,2.09-0.975c0.171-0.116,0.38-0.071,0.545,0.033
		c1.51,0.864,3.004,1.757,4.52,2.613c0.322,0.186,0.65-0.061,0.927-0.216c5.776-3.266,11.562-6.518,17.338-9.786
		c0.214-0.102,0.332-0.328,0.314-0.563c0.004-6.624,0.002-13.25,0.002-19.874c0.024-0.266-0.129-0.511-0.37-0.619
		c-5.867-3.304-11.73-6.613-17.597-9.918c-0.208-0.143-0.483-0.143-0.69-0.001c-5.866,3.307-11.729,6.619-17.596,9.922
		c-0.239,0.11-0.4,0.35-0.372,0.617c0.001,6.624,0,13.25,0,19.875c-0.021,0.233,0.106,0.456,0.319,0.558
		c1.565,0.886,3.133,1.77,4.699,2.653c0.882,0.475,1.965,0.758,2.938,0.394c0.858-0.308,1.459-1.184,1.443-2.097
		c0.008-6.585-0.004-13.17,0.006-19.754c-0.021-0.293,0.256-0.534,0.541-0.507c0.752-0.005,1.504-0.01,2.257,0.002
		c0.313-0.007,0.53,0.307,0.491,0.603c-0.003,6.626,0.008,13.255-0.005,19.881c0.002,1.768-0.724,3.69-2.358,4.554
		c-2.012,1.042-4.5,0.82-6.488-0.18c-1.721-0.859-3.363-1.872-5.055-2.794c-1.175-0.606-1.986-1.879-1.979-3.209V13.961
		c-0.013-1.306,0.76-2.565,1.906-3.182C75.536,7.458,81.422,4.133,87.307,0.81z"/>
	<path fill="#8CC84B" d="M92.443,14.719c2.565-0.165,5.314-0.098,7.625,1.168c1.788,0.969,2.78,3.002,2.812,4.991
		c-0.05,0.267-0.329,0.415-0.586,0.397c-0.746-0.001-1.489,0.01-2.235-0.005c-0.315,0.011-0.498-0.279-0.54-0.56
		c-0.214-0.95-0.73-1.891-1.626-2.35c-1.373-0.688-2.967-0.653-4.465-0.639c-1.095,0.057-2.27,0.152-3.195,0.795
		c-0.713,0.487-0.928,1.471-0.674,2.262c0.239,0.569,0.895,0.752,1.433,0.922c3.095,0.809,6.372,0.729,9.407,1.793
		c1.257,0.434,2.485,1.278,2.915,2.593c0.563,1.765,0.317,3.871-0.938,5.287c-1.018,1.165-2.499,1.8-3.977,2.144
		c-1.966,0.438-4.007,0.448-6.004,0.254c-1.876-0.213-3.83-0.706-5.279-1.986c-1.239-1.075-1.845-2.751-1.784-4.37
		c0.014-0.273,0.286-0.465,0.548-0.441c0.751-0.007,1.501-0.009,2.25,0.002c0.3-0.023,0.522,0.235,0.538,0.519
		c0.138,0.906,0.479,1.857,1.269,2.395c1.524,0.982,3.436,0.917,5.183,0.943c1.447-0.065,3.07-0.084,4.249-1.041
		c0.623-0.543,0.809-1.455,0.641-2.242c-0.183-0.661-0.877-0.969-1.472-1.173c-3.054-0.966-6.37-0.614-9.395-1.707
		c-1.227-0.434-2.414-1.254-2.887-2.517c-0.658-1.785-0.356-3.994,1.029-5.361C88.637,15.431,90.588,14.906,92.443,14.719
		L92.443,14.719z"/>
</g>
<path fill="#5D87A1" d="M11.964,36.857h-1.79c-0.063-3.02-0.238-5.859-0.523-8.52H9.636l-2.723,8.52H5.55l-2.708-8.52H2.828
	c-0.201,2.554-0.328,5.394-0.379,8.52H0.816c0.105-3.801,0.37-7.364,0.792-10.689h2.218l2.58,7.854h0.016l2.597-7.854h2.122
	C11.605,30.064,11.879,33.625,11.964,36.857 M19.723,28.971c-0.729,3.953-1.689,6.824-2.883,8.618
	c-0.928,1.38-1.947,2.07-3.055,2.07c-0.296,0-0.66-0.09-1.092-0.267v-0.953c0.211,0.031,0.458,0.048,0.744,0.048
	c0.518,0,0.934-0.142,1.251-0.428c0.38-0.348,0.57-0.739,0.57-1.171c0-0.297-0.148-0.903-0.444-1.821l-1.964-6.097h1.758
	l1.409,4.559c0.316,1.036,0.45,1.76,0.396,2.171c0.771-2.059,1.309-4.302,1.616-6.73L19.723,28.971L19.723,28.971z"/>
<path fill="#F8981D" d="M43.537,36.857h-5.083V26.168h1.711v9.373h3.372V36.857z M37.123,37.115l-1.963-0.97
	c0.174-0.144,0.34-0.299,0.49-0.477c0.835-0.982,1.252-2.433,1.252-4.355c0-3.535-1.388-5.305-4.164-5.305
	c-1.36,0-2.424,0.448-3.184,1.347c-0.833,0.981-1.251,2.429-1.251,4.338c0,1.88,0.37,3.259,1.107,4.132
	c0.677,0.792,1.695,1.189,3.058,1.189c0.51,0,0.974-0.062,1.399-0.188l2.558,1.489L37.123,37.115z M30.758,34.718
	c-0.432-0.696-0.647-1.813-0.647-3.355c0-2.691,0.818-4.038,2.454-4.038c0.855,0,1.481,0.321,1.884,0.965
	c0.433,0.697,0.649,1.806,0.649,3.325c0,2.714-0.818,4.069-2.454,4.069C31.788,35.685,31.161,35.363,30.758,34.718 M27.56,33.893
	c0,0.908-0.332,1.65-0.997,2.232c-0.666,0.581-1.557,0.872-2.675,0.872c-1.045,0-2.06-0.334-3.041-0.998l0.458-0.919
	c0.844,0.425,1.609,0.634,2.296,0.634c0.645,0,1.147-0.144,1.513-0.425c0.363-0.285,0.581-0.685,0.581-1.187
	c0-0.636-0.443-1.179-1.255-1.633c-0.749-0.413-2.247-1.271-2.247-1.271c-0.813-0.592-1.219-1.229-1.219-2.274
	c0-0.866,0.303-1.565,0.91-2.099c0.608-0.534,1.391-0.8,2.352-0.8c0.992,0,1.895,0.266,2.707,0.792l-0.413,0.918
	c-0.694-0.295-1.381-0.441-2.056-0.441c-0.55,0-0.972,0.13-1.267,0.395c-0.295,0.264-0.478,0.602-0.478,1.014
	c0,0.633,0.452,1.182,1.287,1.646c0.758,0.413,2.295,1.287,2.295,1.287C27.144,32.226,27.56,32.855,27.56,33.893"/>
<path fill="#5D87A1" d="M45.682,22.587c-1.031-0.025-1.834,0.077-2.504,0.363c-0.195,0.075-0.503,0.075-0.53,0.321
	c0.105,0.103,0.117,0.272,0.21,0.415c0.154,0.258,0.423,0.605,0.67,0.786c0.27,0.209,0.542,0.414,0.828,0.594
	c0.502,0.312,1.07,0.491,1.56,0.801c0.285,0.181,0.57,0.415,0.854,0.608c0.142,0.103,0.232,0.269,0.414,0.335v-0.039
	c-0.092-0.116-0.117-0.284-0.206-0.413l-0.389-0.374c-0.375-0.504-0.841-0.942-1.342-1.304c-0.415-0.285-1.318-0.673-1.486-1.148
	l-0.027-0.027c0.285-0.026,0.623-0.131,0.892-0.207c0.44-0.117,0.84-0.09,1.291-0.206c0.207-0.054,0.413-0.117,0.622-0.182v-0.116
	c-0.233-0.232-0.399-0.542-0.646-0.763c-0.658-0.567-1.383-1.123-2.132-1.588c-0.401-0.259-0.918-0.426-1.344-0.646
	c-0.153-0.078-0.413-0.116-0.504-0.245c-0.231-0.284-0.362-0.658-0.53-0.994c-0.374-0.711-0.735-1.497-1.06-2.248
	c-0.231-0.504-0.374-1.006-0.657-1.472c-1.331-2.195-2.777-3.525-4.998-4.83c-0.478-0.272-1.045-0.388-1.653-0.53l-0.968-0.051
	c-0.208-0.092-0.413-0.336-0.595-0.453c-0.736-0.465-2.635-1.471-3.177-0.141c-0.349,0.84,0.517,1.665,0.812,2.092
	c0.221,0.296,0.506,0.633,0.659,0.969c0.09,0.219,0.116,0.453,0.208,0.685c0.206,0.568,0.399,1.2,0.671,1.731
	c0.142,0.27,0.296,0.554,0.478,0.799c0.104,0.144,0.284,0.206,0.324,0.439c-0.181,0.258-0.193,0.646-0.3,0.969
	c-0.463,1.459-0.281,3.268,0.376,4.339c0.207,0.323,0.698,1.034,1.355,0.761c0.583-0.232,0.454-0.968,0.621-1.613
	c0.039-0.156,0.013-0.258,0.092-0.359v0.023c0.179,0.362,0.36,0.71,0.527,1.072c0.401,0.632,1.101,1.291,1.68,1.729
	c0.31,0.233,0.555,0.634,0.942,0.777v-0.039h-0.026c-0.077-0.116-0.191-0.17-0.295-0.258c-0.232-0.232-0.491-0.517-0.673-0.775
	c-0.541-0.724-1.019-1.524-1.445-2.351c-0.207-0.402-0.388-0.84-0.556-1.24c-0.077-0.154-0.077-0.388-0.207-0.465
	c-0.194,0.283-0.478,0.529-0.619,0.877c-0.246,0.557-0.271,1.24-0.362,1.952l-0.052,0.024c-0.41-0.104-0.554-0.529-0.71-0.891
	c-0.387-0.917-0.453-2.391-0.117-3.448c0.091-0.271,0.479-1.124,0.324-1.381c-0.077-0.247-0.336-0.389-0.479-0.583
	c-0.166-0.244-0.349-0.555-0.464-0.826c-0.311-0.723-0.468-1.523-0.8-2.246c-0.156-0.337-0.427-0.686-0.646-0.996
	c-0.246-0.348-0.518-0.593-0.712-1.006c-0.063-0.143-0.154-0.375-0.05-0.529c0.024-0.104,0.077-0.143,0.181-0.168
	c0.166-0.143,0.646,0.037,0.812,0.115c0.479,0.193,0.88,0.375,1.279,0.646c0.181,0.13,0.376,0.375,0.607,0.44h0.271
	c0.412,0.09,0.877,0.024,1.267,0.141c0.683,0.221,1.305,0.543,1.859,0.892c1.691,1.072,3.086,2.597,4.028,4.417
	c0.154,0.297,0.219,0.568,0.361,0.878c0.271,0.634,0.607,1.278,0.879,1.899c0.271,0.606,0.529,1.225,0.916,1.729
	c0.193,0.271,0.972,0.413,1.318,0.556c0.257,0.115,0.658,0.219,0.892,0.36c0.439,0.271,0.876,0.582,1.29,0.88
	C44.998,22.006,45.644,22.328,45.682,22.587 M32.509,11.363c-0.177-0.001-0.356,0.021-0.527,0.066v0.025h0.024
	c0.104,0.206,0.285,0.35,0.413,0.529c0.105,0.208,0.194,0.413,0.297,0.619l0.024-0.025c0.184-0.129,0.272-0.336,0.272-0.645
	c-0.077-0.092-0.089-0.181-0.156-0.272C32.781,11.532,32.613,11.468,32.509,11.363"/>
<path fill="#F8981D" d="M46.912,36.854h0.268v-1.309h-0.401l-0.325,0.893l-0.356-0.893H45.71v1.309h0.253v-0.996h0.014l0.371,0.996
	h0.193l0.371-0.996V36.854z M44.758,36.854h0.282v-1.087h0.371v-0.223h-1.039v0.223h0.385L44.758,36.854L44.758,36.854z"/>
</svg>
