<?xml version="1.0" encoding="utf-8"?>
<!-- Generator: Adobe Illustrator 16.0.0, SVG Export Plug-In . SVG Version: 6.00 Build 0)  -->
<!DOCTYPE svg PUBLIC "-//W3C//DTD SVG 1.1//EN" "http://www.w3.org/Graphics/SVG/1.1/DTD/svg11.dtd">
<svg version="1.1" id="Layer_1" xmlns="http://www.w3.org/2000/svg" xmlns:xlink="http://www.w3.org/1999/xlink" x="0px" y="0px"
	 width="48px" height="48px" viewBox="0 0 48 48" enable-background="new 0 0 48 48" xml:space="preserve">
<g>
	<path fill="#E44D26" d="M-183.694,9.489l-3.062,34.306l-13.765,3.816l-13.728-3.811l-3.059-34.312H-183.694L-183.694,9.489z"/>
	<path fill="#F16529" d="M-200.5,44.693l11.123-3.084l2.616-29.315H-200.5V44.693z"/>
	<path fill="#EBEBEB" d="M-206.454,20.711h5.953v-4.208h-10.552l0.1,1.128l1.035,11.597h9.417V25.02h-5.568L-206.454,20.711z
		 M-205.505,31.334h-4.225l0.59,6.605l8.62,2.393l0.02-0.004v-4.379l-0.019,0.004l-4.687-1.266L-205.505,31.334L-205.505,31.334z"/>
	<path d="M-214.181,0.165h2.139v2.113h1.957V0.165h2.139v6.398h-2.139V4.42h-1.957v2.143h-2.139V0.165L-214.181,0.165z
		 M-205.135,2.287h-1.883V0.165h5.905v2.122h-1.883v4.276h-2.139L-205.135,2.287L-205.135,2.287L-205.135,2.287z M-200.175,0.165
		h2.229l1.372,2.248l1.37-2.248h2.231v6.398h-2.13V3.391l-1.472,2.275h-0.037l-1.472-2.275v3.172h-2.093V0.165z M-191.908,0.165
		h2.139v4.283h3.007v2.115h-5.146L-191.908,0.165L-191.908,0.165z"/>
	<path fill="#FFFFFF" d="M-200.516,29.229h5.184l-0.49,5.457l-4.693,1.266v4.379l8.628-2.391l0.062-0.711l0.989-11.078l0.103-1.131
		h-9.782V29.229L-200.516,29.229z M-200.516,20.701v0.011h10.165l0.085-0.946l0.191-2.134l0.102-1.128h-10.543V20.701
		L-200.516,20.701z"/>
</g>
<g>
	<path fill="#131313" d="M-121.302,1.856h-2.78l2.892,3.142v1.494h-5.963v-1.75h2.896l-2.896-3.143V0.105h5.854L-121.302,1.856z
		 M-128.335,1.856h-2.787l2.898,3.142v1.494h-5.963v-1.75h2.893l-2.893-3.143V0.105h5.852V1.856z M-135.302,1.928h-3.001v2.743
		h3.001v1.824h-5.139v-6.39h5.139V1.928z"/>
	<path fill="#1572B6" d="M-144.532,43.646l-3.053-34.236h33.539l-3.057,34.228l-13.734,3.81L-144.532,43.646z"/>
	<path fill="#33A9DC" d="M-130.815,44.539l11.099-3.076l2.608-29.253h-13.707V44.539z"/>
	<path fill="#FFFFFF" d="M-130.815,24.613h5.556l0.384-4.3h-5.939v-4.197h10.529l-0.1,1.127l-1.032,11.572h-9.397V24.613z"/>
	<path fill="#EBEBEB" d="M-130.792,35.519h-0.02l-4.677-1.263l-0.298-3.348h-4.211l0.587,6.59l8.603,2.396h0.025v-4.375H-130.792z"
		/>
	<path fill="#FFFFFF" d="M-125.614,28.631l-0.507,5.621l-4.683,1.263v4.375l8.607-2.388l0.062-0.71l0.731-8.161H-125.614
		L-125.614,28.631z"/>
	<path fill="#EBEBEB" d="M-130.799,16.117v4.199h-10.141l-0.085-0.943l-0.193-2.129l-0.1-1.127H-130.799z M-130.815,24.613v4.198
		h-4.623l-0.081-0.943l-0.193-2.129l-0.1-1.126h4.995H-130.815z"/>
</g>
<g>
	<path fill="#E6A329" d="M-44.117,9.573h-33.707l3.16,34.267l13.691,3.885l13.691-3.885L-44.117,9.573z"/>
	<path fill="#F1BF22" d="M-60.972,12.365V44.82l11.094-3.143l2.698-29.313H-60.972z"/>
	<path fill="#FFFFFF" d="M-52.147,16.569h-17.056l-1.188,12.83l0.024-0.078h14.491l-0.472,5.428l-4.624,1.33l-4.692-1.352
		l-0.28-3.285h-4.259l0.607,6.564l8.624,2.449l8.628-2.449l1.188-12.885h-15.379l0.198-4.293h10.669l0.16,2.459h4.297
		L-52.147,16.569z"/>
	<path fill="#EBEBEB" d="M-60.968,16.569h-8.235l-1.188,12.83l0.024-0.078h9.399v-4.186h-4.967l0.197-4.293h4.77V16.569z
		 M-65.935,31.441h-4.269l0.607,6.561l8.624,2.445v-4.365l-4.692-1.355L-65.935,31.441z"/>
	<path fill="#231F20" d="M-64.25,4.519h-3v2.154h5.146V0.275h-2.146V4.519z M-54.692,0.31h-5.231v2.239
		c0.698,0.699,1.064,1.034,2.094,2.046h-2.094v2.042h5.231V4.599l-2.092-2.046h2.092V0.31z"/>
</g>
<g>
	<path fill="#8CC84B" d="M22.06,0.81c1.175-0.673,2.706-0.676,3.88,0c5.907,3.338,11.815,6.67,17.723,10.01
		c1.11,0.625,1.853,1.862,1.842,3.142v20.082c0.009,1.332-0.81,2.599-1.981,3.209c-5.887,3.319-11.77,6.643-17.657,9.962
		c-1.199,0.686-2.761,0.634-3.923-0.108c-1.765-1.023-3.533-2.042-5.298-3.063c-0.36-0.214-0.767-0.388-1.022-0.736
		c0.226-0.303,0.628-0.341,0.955-0.475c0.737-0.233,1.414-0.61,2.09-0.975c0.171-0.116,0.38-0.071,0.544,0.033
		c1.51,0.864,3.005,1.757,4.52,2.613c0.323,0.186,0.65-0.061,0.927-0.216c5.776-3.266,11.562-6.518,17.338-9.786
		c0.214-0.102,0.332-0.328,0.314-0.563c0.004-6.624,0.002-13.25,0.002-19.874c0.024-0.266-0.129-0.511-0.37-0.619
		c-5.867-3.304-11.73-6.613-17.597-9.918c-0.208-0.143-0.483-0.143-0.691-0.001c-5.866,3.307-11.729,6.619-17.595,9.922
		c-0.239,0.11-0.4,0.35-0.372,0.617c0.001,6.624,0,13.25,0,19.875c-0.021,0.233,0.106,0.456,0.319,0.558
		c1.565,0.886,3.132,1.77,4.699,2.653c0.882,0.475,1.965,0.758,2.938,0.394c0.858-0.308,1.459-1.184,1.442-2.097
		c0.008-6.585-0.003-13.17,0.006-19.754c-0.021-0.293,0.256-0.534,0.541-0.507c0.752-0.005,1.505-0.01,2.257,0.002
		c0.314-0.007,0.53,0.307,0.491,0.603c-0.003,6.626,0.008,13.255-0.005,19.881c0.002,1.768-0.724,3.69-2.358,4.554
		c-2.012,1.042-4.5,0.82-6.488-0.18c-1.721-0.859-3.364-1.872-5.055-2.794c-1.175-0.606-1.987-1.879-1.979-3.209V13.961
		c-0.013-1.306,0.76-2.565,1.906-3.182C10.289,7.458,16.174,4.133,22.06,0.81z"/>
	<path fill="#8CC84B" d="M27.196,14.719c2.565-0.165,5.314-0.098,7.625,1.168c1.788,0.969,2.78,3.002,2.812,4.991
		c-0.05,0.267-0.329,0.415-0.586,0.397c-0.746-0.001-1.489,0.01-2.235-0.005c-0.315,0.011-0.498-0.279-0.54-0.56
		c-0.214-0.95-0.73-1.891-1.626-2.35c-1.373-0.688-2.967-0.653-4.465-0.639c-1.095,0.057-2.27,0.152-3.195,0.795
		c-0.712,0.487-0.928,1.471-0.674,2.262c0.24,0.569,0.895,0.752,1.433,0.922c3.095,0.809,6.372,0.729,9.407,1.793
		c1.257,0.434,2.485,1.278,2.915,2.593c0.563,1.765,0.317,3.871-0.938,5.287c-1.018,1.165-2.499,1.8-3.977,2.144
		c-1.966,0.438-4.007,0.448-6.004,0.254c-1.876-0.213-3.83-0.706-5.279-1.986c-1.239-1.075-1.845-2.751-1.784-4.37
		c0.014-0.273,0.286-0.465,0.548-0.441c0.75-0.007,1.5-0.009,2.25,0.002c0.3-0.023,0.522,0.235,0.538,0.519
		c0.138,0.906,0.479,1.857,1.269,2.395c1.524,0.982,3.436,0.917,5.183,0.943c1.447-0.065,3.07-0.084,4.249-1.041
		c0.623-0.543,0.809-1.455,0.641-2.242c-0.183-0.661-0.877-0.969-1.472-1.173c-3.054-0.966-6.37-0.614-9.394-1.707
		c-1.228-0.434-2.415-1.254-2.887-2.517c-0.658-1.785-0.357-3.994,1.029-5.361C23.389,15.431,25.341,14.906,27.196,14.719
		L27.196,14.719z"/>
</g>
</svg>
